# xmcd
#
# Track frame offsets:
#	150
#	12839
#	22339
#	31434
#	39705
#	51103
#	89316
#	108092
#	122284
#	134520
#	146435
#	156361
#	168380
#	181797
#	190605
#	201442
#	220097
#	233184
#	247052
#	259796
#
# Disc length: 3702 seconds
#
# Revision: 0
# Processed by: cddbd v1.5PL3 Copyright (c) Steve Scherf et al.
# Submitted via: audiograbber 1.82.02
#
DISCID=170e7414
DTITLE=Johnny Cash - Best Of
DYEAR=1900
DGENRE=
TTITLE0=Folsom Prison Blues
TTITLE1=Oh, What A Dream
TTITLE2=Pickin´ Time
TTITLE3=Five Feet High And Rising
TTITLE4=Seasons Of My Heart
TTITLE5=The Legend Of John Henry´s Hammer
TTITLE6=The Ballad Of Ira Hayes
TTITLE7=Orange Blossom Special
TTITLE8=Ring Of Fire
TTITLE9=I´d Still Be There
TTITLE10=What Do I Care
TTITLE11=I Still Miss Someone
TTITLE12=Forty Shades Of Green
TTITLE13=The Rebel - Johnny Yuma
TTITLE14=Bonanza!
TTITLE15=The Big Battle
TTITLE16=Remember The Alamo
TTITLE17=Tennessee Flat - Top Box
TTITLE18=(There´ll Be) Peace In The Valley (For Me)
TTITLE19=Were You There (When They Crucified My Lord)
EXTD=
EXTT0=
EXTT1=
EXTT2=
EXTT3=
EXTT4=
EXTT5=
EXTT6=
EXTT7=
EXTT8=
EXTT9=
EXTT10=
EXTT11=
EXTT12=
EXTT13=
EXTT14=
EXTT15=
EXTT16=
EXTT17=
EXTT18=
EXTT19=
PLAYORDER=
